<svg width="32" height="32" viewBox="0 0 32 32" fill="none" xmlns="http://www.w3.org/2000/svg">
<path d="M4 4L8.5 8.5M27 27L17.5 17.5M27 27V22M27 27H22" stroke="white" stroke-width="2"/>
<path d="M18.7471 7.41699C19.5082 7.00798 20.3826 6.8813 21.3291 7.1377C22.7174 7.51382 23.8524 8.61562 24.5391 10.1826C25.3765 12.0937 25.0563 14.3263 23.71 15.916L23.6904 15.9375L16.7441 23.668L16 24.4961L15.2559 23.668L8.30957 15.9375L8.29004 15.916C6.9437 14.3263 6.62348 12.0937 7.46094 10.1826C8.14761 8.61562 9.28262 7.51382 10.6709 7.1377C11.6174 6.88129 12.4918 7.00798 13.2529 7.41699C13.9847 7.81026 14.5614 8.43553 15.0186 9.10547C15.3956 9.65806 15.7183 10.2869 16 10.9307C16.2817 10.2869 16.6044 9.65806 16.9814 9.10547C17.4386 8.43553 18.0153 7.81026 18.7471 7.41699Z" stroke="white" stroke-width="2"/>
</svg>
