<svg width="32" height="32" viewBox="0 0 32 32" fill="none" xmlns="http://www.w3.org/2000/svg">
<path d="M4 19V13H7L13 5H15V27H13L7 19H4Z" stroke="white" stroke-width="2"/>
<path d="M18 19C19.6569 19 21 17.6569 21 16C21 14.3431 19.6569 13 18 13" stroke="white" stroke-width="2"/>
<path d="M18 23C21.866 23 25 19.866 25 16C25 12.134 21.866 9 18 9" stroke="white" stroke-width="2"/>
<path d="M18 27C24.0751 27 29 22.0751 29 16C29 9.92487 24.0751 5 18 5" stroke="white" stroke-width="2"/>
<path d="M3 3L29 29" stroke="white" stroke-width="2"/>
</svg>
