<svg width="32" height="32" viewBox="0 0 32 32" fill="none" xmlns="http://www.w3.org/2000/svg">
<path d="M19.1621 9.81812L19.5078 9.82788C23.0495 10.0283 25.671 13.2868 25.0459 16.8308L24.0977 22.2048C23.4046 26.1346 19.9905 28.9998 16 28.9998C12.0096 28.9997 8.59543 26.1346 7.90234 22.2048L6.9541 16.8308C6.30889 13.1724 9.12313 9.81834 12.8379 9.81812H19.1621Z" stroke="white" stroke-width="2"/>
<path d="M11.4547 24.4548C11.4547 23.2493 11.9336 22.0931 12.7861 21.2407C13.6385 20.3883 14.7947 19.9094 16.0002 19.9094C17.2057 19.9094 18.3619 20.3883 19.2143 21.2407C20.0668 22.0931 20.5457 23.2493 20.5457 24.4548" stroke="white" stroke-width="2"/>
<path d="M10.697 18.0153L12.591 16.1213" stroke="white" stroke-width="2"/>
<path d="M20.9243 18.0153L19.0304 16.1213" stroke="white" stroke-width="2"/>
<path d="M8 7V5.42424V4.21212V3" stroke="white" stroke-width="2"/>
<path d="M12 7V3" stroke="white" stroke-width="2"/>
<path d="M16 7V3" stroke="white" stroke-width="2"/>
<path d="M20 7V3" stroke="white" stroke-width="2"/>
<path d="M24 7V3" stroke="white" stroke-width="2"/>
</svg>
