<svg width="32" height="32" viewBox="0 0 32 32" fill="none" xmlns="http://www.w3.org/2000/svg">
<path d="M5.90039 15.4102L4.91504 15.5742L4.35547 12.2178C4.19294 11.2425 4.21612 10.2818 4.39746 9.37012L5.37793 9.56543H5.37988C5.44544 9.2359 5.53325 8.91378 5.64453 8.60156L4.70215 8.26562C5.34831 6.45281 6.64131 4.9266 8.32324 3.99121L8.80859 4.86523V4.86621C9.0983 4.70505 9.40152 4.56518 9.71582 4.44629V4.44434L9.3623 3.50879C10.2316 3.1801 11.1755 3.00005 12.1641 3H15.3604V4H16.6396V3H19.8359C20.8245 3.00005 21.7684 3.1801 22.6377 3.50879L22.2842 4.44434L22.2832 4.44629C22.5975 4.56514 22.9007 4.70507 23.1904 4.86621L23.1914 4.86523L23.6768 3.99121C25.3587 4.9266 26.6517 6.45281 27.2979 8.26562L26.3555 8.60156H26.3545C26.4658 8.91382 26.5536 9.23586 26.6191 9.56543H26.6221L27.6025 9.37012L27.6631 9.71387C27.7867 10.5219 27.7868 11.3643 27.6445 12.2178L27.085 15.5742L26.0986 15.4102L25.874 16.751L25.875 16.752L26.8613 16.917L26.3018 20.2734C26.1302 21.3025 25.8109 22.2766 25.3682 23.1748L24.4717 22.7324L24.4688 22.7305C24.3049 23.063 24.1237 23.3843 23.9238 23.6924L23.9248 23.6934L24.7646 24.2383C23.6482 25.9589 22.0448 27.3173 20.1641 28.1357L19.7646 27.2188L19.7637 27.2158C19.4269 27.3624 19.0806 27.4897 18.7256 27.5967L18.7266 27.5996L19.0156 28.5566C18.0569 28.8457 17.0434 29 16 29C14.9566 29 13.9431 28.8457 12.9844 28.5566L13.2734 27.5996V27.5967C12.9185 27.4896 12.5721 27.3624 12.2354 27.2158V27.2188L11.8359 28.1357C9.95517 27.3173 8.35181 25.9589 7.23535 24.2383L8.0752 23.6934V23.6924C7.87536 23.3843 7.69411 23.0629 7.53027 22.7305L7.52832 22.7324L6.63184 23.1748C6.24439 22.3888 5.95152 21.5446 5.76953 20.6562L5.69824 20.2734L5.13867 16.917L6.125 16.752V16.751L5.90039 15.4102Z" stroke="white" stroke-width="2" stroke-dasharray="5 1"/>
<path d="M22 16C22 17.5913 21.3679 19.1174 20.2426 20.2426C19.1174 21.3679 17.5913 22 16 22C14.4087 22 12.8826 21.3679 11.7574 20.2426C10.6321 19.1174 10 17.5913 10 16" stroke="white" stroke-width="2"/>
<circle cx="11" cy="12" r="2" fill="white"/>
<circle cx="21" cy="12" r="2" fill="white"/>
</svg>
