<svg width="32" height="32" viewBox="0 0 32 32" fill="none" xmlns="http://www.w3.org/2000/svg">
<path d="M22 16C22 17.5913 21.3679 19.1174 20.2426 20.2426C19.1174 21.3679 17.5913 22 16 22C14.4087 22 12.8826 21.3679 11.7574 20.2426C10.6321 19.1174 10 17.5913 10 16" stroke="white" stroke-width="2"/>
<circle cx="11" cy="12" r="2" fill="white"/>
<circle cx="21" cy="12" r="2" fill="white"/>
<path d="M9 28L4.5 24L6.5 19.5L5.5 13.5L3 9M9 28L20 29L22.5 25L29 24M9 28L10 23.5M3 9L6.5 3L12 4M3 9H6.5L12 4M12 4L19 2.5L26 6L28 13M12 4L16.5 7M28 13L29 24M28 13L25.5 14L24 20L29 24" stroke="white" stroke-width="2"/>
</svg>
