<svg width="32" height="32" viewBox="0 0 32 32" fill="none" xmlns="http://www.w3.org/2000/svg">
<path d="M17.2988 3C22.9949 3 27.328 8.11487 26.3916 13.7334C26.0876 15.5571 25.0423 17.1736 23.5039 18.1992L22.7754 18.6846L22.6836 18.8691C21.4179 21.4006 18.8302 23 16 23C13.1698 23 10.5821 21.4006 9.31641 18.8691L9.22363 18.6846L8.49609 18.1992C6.95774 17.1736 5.91241 15.5571 5.6084 13.7334C4.67198 8.11487 9.00514 3 14.7012 3H17.2988Z" stroke="white" stroke-width="2"/>
<circle cx="11" cy="12" r="2" fill="white"/>
<circle cx="21" cy="12" r="2" fill="white"/>
<path d="M16 13V15.8284" stroke="white" stroke-width="2"/>
<path d="M16 17L16 23" stroke="white" stroke-width="2"/>
<path d="M19.4143 17L19.4143 22" stroke="white" stroke-width="2"/>
<path d="M12.4143 17L12.4143 22" stroke="white" stroke-width="2"/>
<path d="M6 24L26 29M6 29L26 24" stroke="white" stroke-width="2"/>
</svg>
