<svg width="32" height="32" viewBox="0 0 32 32" fill="none" xmlns="http://www.w3.org/2000/svg">
<path d="M27.5147 4.50003L25 7M4.49999 27.5147L6.99997 25M4.49997 4.50003L6.99997 7M27.5147 27.5147L25 25M16 4L16 7M16 28L16 24M16 7L16 24M16 7L18.5 9.5L25 7M16 7L13.5 9.5L6.99997 7M25 7L22.5 13.5L24 16M25 7L6.99997 25M25 25L6.99997 7M25 25L18.5 22.5L16 24M25 25L22.5 18.5L24 16M16 24L13.5 22.5L6.99997 25M6.99997 25L9.49997 18.5L7.99997 16M3.99997 16L7.99997 16M28 16L24 16M24 16L7.99997 16M7.99997 16L9.49997 13.5L6.99997 7" stroke="white" stroke-width="2"/>
</svg>
