<svg width="32" height="32" viewBox="0 0 32 32" fill="none" xmlns="http://www.w3.org/2000/svg">
<path d="M6.13354 16L6.9429 22.0702C7.54818 26.6097 11.4205 30 16.0002 30C20.5799 30 24.4522 26.6097 25.0575 22.0702L25.8669 16" stroke="white" stroke-width="2"/>
<path d="M11.4547 24.4546C11.4547 23.2491 11.9336 22.0929 12.7861 21.2405C13.6385 20.388 14.7947 19.9091 16.0002 19.9091C17.2057 19.9091 18.3619 20.388 19.2143 21.2405C20.0668 22.0929 20.5457 23.2491 20.5457 24.4546" stroke="white" stroke-width="2"/>
<path d="M10.6973 18.015L12.5912 16.1211" stroke="white" stroke-width="2"/>
<path d="M20.9246 18.015L19.0306 16.1211" stroke="white" stroke-width="2"/>
<path d="M5.78179 5.85474C2.96087 8.55518 2.30718 13.6121 7.32971 13.7668C13.8458 13.9674 17.7189 4.52999 14.6229 3.24012C11.2946 1.85351 4.23365 12.4769 13.3155 13.3543C22.3974 14.2316 27.2309 4.37577 23.1372 3.1545C19.3041 2.01099 16.3135 12.4469 22.363 13.7328C25.9235 14.4897 28.71 11.2904 27.9704 7.83311" stroke="white" stroke-width="2"/>
</svg>
