<svg width="32" height="32" viewBox="0 0 32 32" fill="none" xmlns="http://www.w3.org/2000/svg">
<path d="M19.4543 9.71118C22.4202 11.5494 24.7306 13.7276 26.0827 15.7242C26.7595 16.7235 27.169 17.6379 27.3274 18.4096C27.4844 19.1742 27.3856 19.7394 27.132 20.1486C26.8784 20.5578 26.4162 20.8977 25.6616 21.0974C24.9 21.2989 23.8989 21.3391 22.7028 21.1777C20.3132 20.8553 17.3344 19.7555 14.3684 17.9173C11.4027 16.0792 9.09294 13.9012 7.74079 11.9048C7.06401 10.9055 6.65375 9.99058 6.49529 9.21881C6.33837 8.45431 6.43708 7.88902 6.69068 7.47983C6.9443 7.07064 7.40659 6.73069 8.16107 6.53104C8.92273 6.32953 9.92461 6.28983 11.1207 6.45124C13.5102 6.7738 16.4886 7.87316 19.4543 9.71118Z" stroke="white" stroke-width="2"/>
<path d="M17.6833 14.0824C20.6492 15.9206 22.9596 18.0988 24.3117 20.0954C24.9885 21.0947 25.398 22.0091 25.5564 22.7809C25.7134 23.5454 25.6146 24.1106 25.361 24.5198C25.1074 24.9291 24.6452 25.269 23.8906 25.4686C23.129 25.6701 22.1279 25.7103 20.9318 25.5489C18.5422 25.2265 15.5634 24.1267 12.5974 22.2885C9.63174 20.4504 7.32194 18.2724 5.96979 16.276C5.29301 15.2767 4.88275 14.3618 4.72429 13.59C4.56738 12.8255 4.66608 12.2602 4.91969 11.851C5.1733 11.4419 5.6356 11.1019 6.39007 10.9023C7.15173 10.7007 8.15362 10.661 9.34971 10.8225C11.7392 11.145 14.7176 12.2444 17.6833 14.0824Z" stroke="white" stroke-width="2"/>
<path d="M26.8906 2C26.8906 3.29087 27.155 3.93428 27.501 4.28027C27.847 4.62626 28.4904 4.89062 29.7812 4.89062V6.89062C28.4904 6.89063 27.847 7.15499 27.501 7.50098C27.155 7.84696 26.8906 8.49039 26.8906 9.78125H24.8906C24.8906 8.49039 24.6263 7.84696 24.2803 7.50098C23.9343 7.15499 23.2909 6.89062 22 6.89062V4.89062C23.2909 4.89062 23.9343 4.62626 24.2803 4.28027C24.6263 3.93428 24.8906 3.29089 24.8906 2H26.8906Z" stroke="white" stroke-width="2"/>
<path d="M6.89062 22C6.89062 23.2909 7.15499 23.9343 7.50098 24.2803C7.84696 24.6263 8.49039 24.8906 9.78125 24.8906V26.8906C8.49039 26.8906 7.84696 27.155 7.50098 27.501C7.15499 27.847 6.89063 28.4904 6.89062 29.7812H4.89062C4.89062 28.4904 4.62626 27.847 4.28027 27.501C3.93428 27.155 3.29087 26.8906 2 26.8906V24.8906C3.29089 24.8906 3.93428 24.6263 4.28027 24.2803C4.62626 23.9343 4.89062 23.2909 4.89062 22H6.89062Z" stroke="white" stroke-width="2"/>
</svg>
