<svg width="35" height="35" viewBox="0 0 35 35" fill="none" xmlns="http://www.w3.org/2000/svg">
<path d="M25.5859 5L28.3936 7.80762C27.1988 8.67388 26 10.0531 26 12C26 13.3428 26.6688 14.4478 27.3848 15.2354C27.8979 15.7998 28.481 16.2504 28.9883 16.5713C28.7513 23.1067 24.4651 28.834 18.2109 30.8789L18 30.9473L17.7891 30.8789C11.4907 28.8195 7.18874 23.0256 7.00781 16.4326C7.15521 16.3066 7.32447 16.1696 7.51953 16.0117C7.84519 15.7481 8.22766 15.4364 8.58203 15.082C9.2968 14.3673 10 13.3772 10 12C10 10.7196 9.46818 9.58525 8.77148 8.73926C8.45328 8.35291 8.08247 8.00951 7.68652 7.72656L10.4141 5H25.5859Z" stroke="white" stroke-width="2"/>
</svg>
