<svg width="22" height="28" viewBox="0 0 22 28" fill="none" xmlns="http://www.w3.org/2000/svg">
<path d="M20.625 2.88633C19.8 2.88633 19.25 3.44441 19.25 4.28153V5.67674H17.1875L15.2625 1.49112C15.125 1.21208 14.9875 0.933043 14.7125 0.793522C14.025 0.0959203 12.925 -0.0436 11.9625 0.374961L11 0.654002L10.0375 0.235441C9.075 -0.183121 7.975 -0.0435999 7.2875 0.654002C7.0125 0.933043 6.875 1.21208 6.7375 1.49112L4.8125 5.67674H2.75V4.28153C2.75 3.44441 2.2 2.88633 1.375 2.88633C0.55 2.88633 0 3.44441 0 4.28153V5.67674C0 7.21146 1.2375 8.46714 2.75 8.46714H19.25C20.7625 8.46714 22 7.21146 22 5.67674V4.28153C22 3.58393 21.45 2.88633 20.625 2.88633ZM0 28V23.8144C0 20.0892 7.32875 18.2336 11 18.2336C14.6713 18.2336 22 20.0892 22 23.8144V28H0ZM19.3875 25.3491V23.8144C19.3875 22.9215 15.0837 20.8845 11 20.8845C6.91625 20.8845 2.6125 22.9215 2.6125 23.8144V25.3491H19.3875ZM16.5 9.86235V11.2576C16.5 14.341 14.0387 16.8384 11 16.8384C7.96125 16.8384 5.5 14.341 5.5 11.2576V9.86235H8.25V11.2576C8.25 12.8062 9.4875 14.048 11 14.048C12.5125 14.048 13.75 12.8062 13.75 11.2576V9.86235H16.5Z" fill="#8F8F8F"/>
</svg>
