<svg width="28" height="32" viewBox="0 0 28 32" fill="none" xmlns="http://www.w3.org/2000/svg">
<path fill-rule="evenodd" clip-rule="evenodd" d="M0.0195312 4.44444V28.5379C0.0066272 28.653 0 28.7699 0 28.8885C0 30.6067 1.39289 31.9996 3.11111 31.9996H25.9902C26.7253 31.9996 27.2092 31.233 26.8929 30.5693L26.2969 29.3187C26.1671 29.0465 26.1671 28.7304 26.2969 28.4582L27.4771 25.9819C27.5411 25.8475 27.5743 25.7005 27.5743 25.5517L27.5751 1.00003C27.5751 0.447733 27.1274 0 26.5751 0H4.46398C2.00938 0 0.0195312 1.98985 0.0195312 4.44444ZM4.01953 2.99639C4.01953 2.37802 3.44142 1.90437 2.93506 2.25932C2.24709 2.74159 1.79731 3.54049 1.79731 4.44444V24.7113C1.79731 25.3433 2.47915 25.7773 3.11111 25.7773C3.61282 25.7773 4.01953 25.3706 4.01953 24.8689V2.99639ZM23.6224 27.5551C24.1493 27.5551 24.4961 28.1045 24.2694 28.5801C24.1764 28.7752 24.1764 29.0017 24.2694 29.1968C24.4961 29.6724 24.1493 30.2218 23.6224 30.2218H3.11111C2.37473 30.2218 1.77778 29.6248 1.77778 28.8885C1.77778 28.1521 2.37473 27.5551 3.11111 27.5551H23.6224ZM12.9445 14.4809C11.7143 13.8081 10.0785 13.5 7.98047 13.5C10.0785 13.5 11.7143 13.1919 12.9445 12.5191C13.8348 12.0322 14.5127 11.3544 14.9996 10.4641C15.6724 9.23384 15.9805 7.598 15.9805 5.5C15.9805 7.598 16.2886 9.23384 16.9614 10.4641C17.4483 11.3544 18.1261 12.0322 19.0164 12.5191C20.2466 13.1919 21.8825 13.5 23.9805 13.5C21.8825 13.5 20.2466 13.8081 19.0164 14.4809C18.1261 14.9678 17.4483 15.6457 16.9614 16.5359C16.2886 17.7662 15.9805 19.402 15.9805 21.5C15.9805 19.402 15.6724 17.7662 14.9996 16.5359C14.5127 15.6457 13.8348 14.9678 12.9445 14.4809ZM14.1746 20.4999C14.2073 21.0512 14.6504 21.5 15.2027 21.5H15.9805H16.7582C17.3105 21.5 17.7537 21.0512 17.7863 20.4999C17.9074 18.4545 18.41 17.2989 19.0947 16.6142C19.7794 15.9295 20.935 15.4269 22.9804 15.3058C23.5317 15.2732 23.9805 14.8301 23.9805 14.2778V13.5V12.7222C23.9805 12.1699 23.5317 11.7268 22.9804 11.6942C20.935 11.5731 19.7794 11.0705 19.0947 10.3858C18.41 9.70107 17.9074 8.54547 17.7863 6.50008C17.7537 5.94876 17.3105 5.5 16.7582 5.5H15.9805H15.2027C14.6504 5.5 14.2073 5.94876 14.1746 6.50008C14.0535 8.54547 13.551 9.70107 12.8662 10.3858C12.1815 11.0705 11.0259 11.5731 8.98054 11.6942C8.42922 11.7268 7.98047 12.1699 7.98047 12.7222V13.5V14.2778C7.98047 14.8301 8.42922 15.2732 8.98054 15.3058C11.0259 15.4269 12.1815 15.9295 12.8662 16.6142C13.551 17.2989 14.0535 18.4545 14.1746 20.4999Z" fill="#717171"/>
</svg>
