<svg width="35" height="35" viewBox="0 0 35 35" fill="none" xmlns="http://www.w3.org/2000/svg">
<path d="M22.002 6.51465C22.9816 5.99275 24.1028 5.84428 25.3232 6.20508C27.0627 6.71938 28.5086 8.14998 29.4004 10.2217C30.4894 12.752 30.0736 15.7085 28.3203 17.8164L28.3115 17.8281L28.3018 17.8389L18.75 28.6621L18 29.5117L17.25 28.6621L7.69824 17.8389L7.68848 17.8281L7.67969 17.8164C5.92635 15.7085 5.51059 12.752 6.59961 10.2217C7.49137 8.14998 8.93727 6.71938 10.6768 6.20508C11.8972 5.84428 13.0184 5.99275 13.998 6.51465C14.9456 7.01958 15.7069 7.84401 16.3223 8.75488C16.993 9.74773 17.5422 10.9276 18 12.1084C18.4578 10.9276 19.007 9.74773 19.6777 8.75488C20.2931 7.84401 21.0544 7.01958 22.002 6.51465Z" stroke="white" stroke-width="2"/>
</svg>
