<svg width="35" height="35" viewBox="0 0 35 35" fill="none" xmlns="http://www.w3.org/2000/svg">
<path d="M26.2627 5C26.1867 6.902 25.8833 9.55279 25.0234 11.8457C23.9962 14.5847 22.3235 16.5 19.5713 16.5V18.5C21.0234 18.5 22.1183 18.9592 22.9746 19.6914C23.8498 20.4398 24.5234 21.5164 25.0283 22.8066C25.9075 25.0535 26.206 27.7711 26.2705 30H9.01562C9.08014 27.7711 9.37771 25.0535 10.2568 22.8066C10.7617 21.5163 11.4363 20.4398 12.3115 19.6914C13.1677 18.9594 14.2621 18.5001 15.7139 18.5V16.5C12.9619 16.4998 11.2899 14.5845 10.2627 11.8457C9.40285 9.55279 9.0994 6.902 9.02344 5H26.2627Z" stroke="white" stroke-width="2"/>
</svg>
