<svg width="35" height="35" viewBox="0 0 35 35" fill="none" xmlns="http://www.w3.org/2000/svg">
<path fill-rule="evenodd" clip-rule="evenodd" d="M14.0879 23.105L5.20601 31L4 29.6432L12.7445 21.8704C11.0022 19.9682 9.94032 17.4212 9.94032 14.634C9.94032 8.78884 14.6102 4 20.4325 4C26.2548 4 30.9246 8.78884 30.9246 14.634C30.9246 20.4791 26.2548 25.2679 20.4325 25.2679C18.0423 25.2679 15.8463 24.4609 14.0879 23.105ZM20.4325 23.4526C25.2246 23.4526 29.1093 19.5044 29.1093 14.634C29.1093 9.76354 25.2246 5.81528 20.4325 5.81528C15.6404 5.81528 11.7556 9.76354 11.7556 14.634C11.7556 19.5044 15.6404 23.4526 20.4325 23.4526Z" fill="white"/>
</svg>
