<svg width="30" height="32" viewBox="0 0 30 32" fill="none" xmlns="http://www.w3.org/2000/svg">
<path fill-rule="evenodd" clip-rule="evenodd" d="M19.069 0H9.9774C3.8135 0 -0.875151 5.53477 0.138188 11.6148L1.72939 21.162C2.77174 27.4161 8.18282 32 14.5232 32C20.8636 32 26.2747 27.4161 27.317 21.162L28.9082 11.6148C29.9216 5.53476 25.2329 0 19.069 0ZM10.1237 21.5853C9.16763 20.6293 8.55483 19.3942 8.36458 18.0715C8.29469 17.5855 7.90325 17.1855 7.41233 17.1855C6.92141 17.1855 6.51832 17.5848 6.57275 18.0727C6.77302 19.868 7.57689 21.5527 8.86658 22.8424C10.3669 24.3427 12.4017 25.1855 14.5234 25.1855C16.6452 25.1855 18.68 24.3427 20.1803 22.8424C21.47 21.5527 22.2739 19.868 22.4741 18.0727C22.5286 17.5848 22.1255 17.1855 21.6345 17.1855C21.1436 17.1855 20.7522 17.5855 20.6823 18.0715C20.492 19.3942 19.8792 20.6293 18.9232 21.5853C17.7563 22.7522 16.1737 23.4078 14.5234 23.4078C12.8732 23.4078 11.2906 22.7522 10.1237 21.5853ZM10.9673 11.259C10.9673 12.5682 9.90605 13.6294 8.59693 13.6294C7.28781 13.6294 6.22656 12.5682 6.22656 11.259C6.22656 9.94992 7.28781 8.88867 8.59693 8.88867C9.90605 8.88867 10.9673 9.94992 10.9673 11.259ZM20.4495 13.6294C21.7586 13.6294 22.8198 12.5682 22.8198 11.259C22.8198 9.94992 21.7586 8.88867 20.4495 8.88867C19.1404 8.88867 18.0791 9.94992 18.0791 11.259C18.0791 12.5682 19.1404 13.6294 20.4495 13.6294Z" fill="white"/>
</svg>
