<svg width="32" height="32" viewBox="0 0 32 32" fill="none" xmlns="http://www.w3.org/2000/svg">
<path d="M32 31V10.0985C32 9.64692 31.6973 9.25136 31.2614 9.1333L30.2571 8.86129C25.7487 7.64026 21.9447 4.63184 19.7149 0.547819C19.5334 0.215367 19.1893 0 18.8105 0H13.1895C12.8107 0 12.4666 0.215368 12.2851 0.547819C10.0553 4.63184 6.25135 7.64026 1.74293 8.86129L0.738584 9.1333C0.302682 9.25136 0 9.64692 0 10.0985V31C0 31.5523 0.447716 32 1 32H11.3178C11.8701 32 12.3178 31.5523 12.3178 31V30.2222V20.5716C12.3178 18.5378 13.9665 16.8891 16.0004 16.8891C18.0342 16.8891 19.6829 18.5378 19.6829 20.5716V30.2222V31C19.6829 31.5523 20.1306 32 20.6829 32H31C31.5523 32 32 31.5523 32 31Z" fill="#717171"/>
</svg>
