<svg width="208" height="161" viewBox="0 0 208 161" fill="none" xmlns="http://www.w3.org/2000/svg">
<g clip-path="url(#clip0_334_21577)">
<path fill-rule="evenodd" clip-rule="evenodd" d="M5.78462 11.0622C3.22517 6.7417 1.3289 0.428851 1.43128 -8.86495L-11.9953 -9C-12.1167 2.02102 -9.8729 10.677 -5.90051 17.3826C-1.90492 24.1274 3.60356 28.498 9.29601 31.2665C19.4559 36.2078 30.3567 36.0415 34.1711 35.9833C34.5027 35.9782 34.7807 35.974 35 35.974V23.1436C34.7134 23.1436 34.3943 23.1462 34.0457 23.1492C30.108 23.1823 22.4085 23.2471 15.3867 19.832C11.736 18.0565 8.32087 15.3435 5.78462 11.0622Z" fill="#F0FF00"/>
<path fill-rule="evenodd" clip-rule="evenodd" d="M98.4062 11.0622C95.9012 6.7417 94.0453 0.428851 94.1455 -8.86495L81.0046 -9C80.8858 2.02102 83.0818 10.677 86.9697 17.3826C90.8803 24.1274 96.2716 28.498 101.843 31.2665C111.787 36.2078 122.455 36.0415 126.189 35.9833C126.513 35.9782 126.785 35.974 127 35.974V23.1436C126.72 23.1436 126.407 23.1462 126.066 23.1492C122.212 23.1823 114.676 23.2471 107.804 19.832C104.231 18.0565 100.889 15.3435 98.4062 11.0622Z" fill="#F0FF00"/>
<path fill-rule="evenodd" clip-rule="evenodd" d="M17.2154 56.0622C19.7748 51.7417 21.6711 45.4289 21.5687 36.135L34.9953 36C35.1167 47.021 32.8729 55.677 28.9005 62.3826C24.9049 69.1274 19.3964 73.498 13.704 76.2665C3.54414 81.2078 -7.35667 81.0415 -11.1711 80.9833C-11.5027 80.9782 -11.7807 80.974 -12 80.974V68.1436C-11.7134 68.1436 -11.3943 68.1462 -11.0457 68.1492C-7.10799 68.1823 0.591511 68.2471 7.61328 64.832C11.264 63.0565 14.6791 60.3435 17.2154 56.0622Z" fill="#F0FF00"/>
<path fill-rule="evenodd" clip-rule="evenodd" d="M109.594 60.9378C112.099 65.2583 113.955 71.5711 113.854 80.865L126.995 81C127.114 69.979 124.918 61.323 121.03 54.6174C117.12 47.8726 111.728 43.502 106.157 40.7335C96.2134 35.7922 85.5445 35.9585 81.8113 36.0167C81.4868 36.0218 81.2147 36.026 81 36.026V48.8564C81.2805 48.8564 81.5928 48.8538 81.934 48.8508C85.7879 48.8177 93.3236 48.7529 100.196 52.168C103.769 53.9435 107.111 56.6565 109.594 60.9378Z" fill="#F0FF00"/>
<path fill-rule="evenodd" clip-rule="evenodd" d="M17.2154 100.616C19.7748 96.3919 21.6711 90.2193 21.5687 81.132L34.9953 81C35.1167 91.7761 32.8729 100.24 28.9005 106.796C24.9049 113.391 19.3964 117.665 13.704 120.372C3.54414 125.203 -7.35667 125.041 -11.1711 124.984C-11.5027 124.979 -11.7807 124.975 -12 124.975V112.429C-11.7134 112.429 -11.3943 112.432 -11.0457 112.435C-7.10799 112.467 0.591511 112.53 7.61328 109.191C11.264 107.455 14.6791 104.803 17.2154 100.616Z" fill="#F0FF00"/>
<path fill-rule="evenodd" clip-rule="evenodd" d="M98.4062 100.616C95.9012 96.3919 94.0453 90.2193 94.1455 81.132L81.0046 81C80.8858 91.7761 83.0818 100.24 86.9697 106.796C90.8803 113.391 96.2716 117.665 101.843 120.372C111.787 125.203 122.455 125.041 126.189 124.984C126.513 124.979 126.785 124.975 127 124.975V112.429C126.72 112.429 126.407 112.432 126.066 112.435C122.212 112.467 114.676 112.53 107.804 109.191C104.231 107.455 100.889 104.803 98.4062 100.616Z" fill="#F0FF00"/>
<path fill-rule="evenodd" clip-rule="evenodd" d="M17.2154 145.616C19.7748 141.392 21.6711 135.219 21.5687 126.132L34.9953 126C35.1167 136.776 32.8729 145.24 28.9005 151.796C24.9049 158.391 19.3964 162.665 13.704 165.372C3.54414 170.203 -7.35667 170.041 -11.1711 169.984C-11.5027 169.979 -11.7807 169.975 -12 169.975V157.429C-11.7134 157.429 -11.3943 157.432 -11.0457 157.435C-7.10799 157.467 0.591511 157.53 7.61328 154.191C11.264 152.455 14.6791 149.803 17.2154 145.616Z" fill="#F0FF00"/>
<path fill-rule="evenodd" clip-rule="evenodd" d="M109.594 145.616C112.099 141.392 113.955 135.219 113.854 126.132L126.995 126C127.114 136.776 124.918 145.24 121.03 151.796C117.12 158.391 111.728 162.665 106.157 165.372C96.2134 170.203 85.5445 170.041 81.8113 169.984C81.4868 169.979 81.2147 169.975 81 169.975V157.429C81.2805 157.429 81.5928 157.432 81.934 157.435C85.7879 157.467 93.3236 157.53 100.196 154.191C103.769 152.455 107.111 149.803 109.594 145.616Z" fill="#F0FF00"/>
<path fill-rule="evenodd" clip-rule="evenodd" d="M63.5938 150.384C66.0988 154.608 67.9547 160.781 67.8545 169.868L80.9954 170C81.1142 159.224 78.9182 150.76 75.0303 144.204C71.1197 137.609 65.7284 133.335 60.1571 130.628C50.2134 125.797 39.5445 125.959 35.8113 126.016C35.4868 126.021 35.2147 126.025 35 126.025V138.571C35.2805 138.571 35.5928 138.568 35.934 138.565C39.7879 138.533 47.3236 138.47 54.196 141.809C57.769 143.545 61.1115 146.197 63.5938 150.384Z" fill="#F0FF00"/>
<path fill-rule="evenodd" clip-rule="evenodd" d="M144.406 150.384C141.901 154.608 140.045 160.781 140.146 169.868L127.005 170C126.886 159.224 129.082 150.76 132.97 144.204C136.88 137.609 142.272 133.335 147.843 130.628C157.787 125.797 168.455 125.959 172.189 126.016C172.513 126.021 172.785 126.025 173 126.025V138.571C172.72 138.571 172.407 138.568 172.066 138.565C168.212 138.533 160.676 138.47 153.804 141.809C150.231 143.545 146.889 146.197 144.406 150.384Z" fill="#F0FF00"/>
<path fill-rule="evenodd" clip-rule="evenodd" d="M191.406 150.384C188.901 154.608 187.045 160.781 187.146 169.868L174.005 170C173.886 159.224 176.082 150.76 179.97 144.204C183.88 137.609 189.272 133.335 194.843 130.628C204.787 125.797 215.455 125.959 219.189 126.016C219.513 126.021 219.785 126.025 220 126.025V138.571C219.72 138.571 219.407 138.568 219.066 138.565C215.212 138.533 207.676 138.47 200.804 141.809C197.231 143.545 193.889 146.197 191.406 150.384Z" fill="#F0FF00"/>
<path fill-rule="evenodd" clip-rule="evenodd" d="M63.5938 105.384C66.0988 109.608 67.9547 115.781 67.8545 124.868L80.9954 125C81.1142 114.224 78.9182 105.76 75.0303 99.2037C71.1197 92.6087 65.7284 88.3353 60.1571 85.6283C50.2134 80.7968 39.5445 80.9594 35.8113 81.0164C35.4868 81.0213 35.2147 81.0255 35 81.0255V93.5707C35.2805 93.5707 35.5928 93.5681 35.934 93.5653C39.7879 93.5329 47.3236 93.4695 54.196 96.8087C57.769 98.5448 61.1115 101.197 63.5938 105.384Z" fill="#F0FF00"/>
<path fill-rule="evenodd" clip-rule="evenodd" d="M155.594 105.384C158.099 109.608 159.955 115.781 159.854 124.868L172.995 125C173.114 114.224 170.918 105.76 167.03 99.2037C163.12 92.6087 157.728 88.3353 152.157 85.6283C142.213 80.7968 131.545 80.9594 127.811 81.0164C127.487 81.0213 127.215 81.0255 127 81.0255V93.5707C127.28 93.5707 127.593 93.5681 127.934 93.5653C131.788 93.5329 139.324 93.4695 146.196 96.8087C149.769 98.5448 153.111 101.197 155.594 105.384Z" fill="#F0FF00"/>
<path fill-rule="evenodd" clip-rule="evenodd" d="M191.406 105.384C188.901 109.608 187.045 115.781 187.146 124.868L174.005 125C173.886 114.224 176.082 105.76 179.97 99.2037C183.88 92.6087 189.272 88.3353 194.843 85.6283C204.787 80.7968 215.455 80.9594 219.189 81.0164C219.513 81.0213 219.785 81.0255 220 81.0255V93.5707C219.72 93.5707 219.407 93.5681 219.066 93.5653C215.212 93.5329 207.676 93.4695 200.804 96.8087C197.231 98.5448 193.889 101.197 191.406 105.384Z" fill="#F0FF00"/>
<path fill-rule="evenodd" clip-rule="evenodd" d="M63.5938 56.0622C66.0988 51.7417 67.9547 45.4289 67.8545 36.135L80.9954 36C81.1142 47.021 78.9182 55.677 75.0303 62.3826C71.1197 69.1274 65.7284 73.498 60.1571 76.2665C50.2134 81.2078 39.5445 81.0415 35.8113 80.9833C35.4868 80.9782 35.2147 80.974 35 80.974V68.1436C35.2805 68.1436 35.5928 68.1462 35.934 68.1492C39.7879 68.1823 47.3236 68.2471 54.196 64.832C57.769 63.0565 61.1115 60.3435 63.5938 56.0622Z" fill="#F0FF00"/>
<path fill-rule="evenodd" clip-rule="evenodd" d="M155.594 60.9378C158.099 65.2583 159.955 71.5711 159.854 80.865L172.995 81C173.114 69.979 170.918 61.323 167.03 54.6174C163.12 47.8726 157.728 43.502 152.157 40.7335C142.213 35.7922 131.545 35.9585 127.811 36.0167C127.487 36.0218 127.215 36.026 127 36.026V48.8564C127.28 48.8564 127.593 48.8538 127.934 48.8508C131.788 48.8177 139.324 48.7529 146.196 52.168C149.769 53.9435 153.111 56.6565 155.594 60.9378Z" fill="#F0FF00"/>
<path fill-rule="evenodd" clip-rule="evenodd" d="M202.594 56.0622C205.099 51.7417 206.955 45.4289 206.854 36.135L219.995 36C220.114 47.021 217.918 55.677 214.03 62.3826C210.12 69.1274 204.728 73.498 199.157 76.2665C189.213 81.2078 178.545 81.0415 174.811 80.9833C174.487 80.9782 174.215 80.974 174 80.974V68.1436C174.28 68.1436 174.593 68.1462 174.934 68.1492C178.788 68.1823 186.324 68.2471 193.196 64.832C196.769 63.0565 200.111 60.3435 202.594 56.0622Z" fill="#F0FF00"/>
<path fill-rule="evenodd" clip-rule="evenodd" d="M52.4062 15.3836C49.9012 19.6081 48.0453 25.7807 48.1455 34.868L35.0046 35C34.8858 24.2239 37.0818 15.7603 40.9697 9.20365C44.8803 2.60875 50.2716 -1.66467 55.8429 -4.3717C65.7866 -9.20319 76.4555 -9.04055 80.1887 -8.98364C80.5132 -8.9787 80.7853 -8.97455 81 -8.97455V3.57074C80.7195 3.57074 80.4072 3.56812 80.066 3.56525C76.2121 3.53286 68.6764 3.46952 61.804 6.8087C58.231 8.5448 54.8885 11.1974 52.4062 15.3836Z" fill="#F0FF00"/>
<path fill-rule="evenodd" clip-rule="evenodd" d="M144.406 10.6164C141.901 6.39189 140.045 0.21932 140.146 -8.86795L127.005 -9C126.886 1.77611 129.082 10.2397 132.97 16.7963C136.88 23.3913 142.272 27.6647 147.843 30.3717C157.787 35.2032 168.455 35.0406 172.189 34.9836C172.513 34.9787 172.785 34.9745 173 34.9745V22.4293C172.72 22.4293 172.407 22.4319 172.066 22.4347C168.212 22.4671 160.676 22.5305 153.804 19.1913C150.231 17.4552 146.889 14.8026 144.406 10.6164Z" fill="#F0FF00"/>
<path fill-rule="evenodd" clip-rule="evenodd" d="M191.406 15.3836C188.901 19.6081 187.045 25.7807 187.146 34.868L174.005 35C173.886 24.2239 176.082 15.7603 179.97 9.20365C183.88 2.60875 189.272 -1.66467 194.843 -4.3717C204.787 -9.20319 215.455 -9.04055 219.189 -8.98364C219.513 -8.9787 219.785 -8.97455 220 -8.97455V3.57074C219.72 3.57074 219.407 3.56812 219.066 3.56525C215.212 3.53286 207.676 3.46952 200.804 6.8087C197.231 8.5448 193.889 11.1974 191.406 15.3836Z" fill="#F0FF00"/>
</g>
<defs>
<clipPath id="clip0_334_21577">
<rect width="208" height="161" fill="white"/>
</clipPath>
</defs>
</svg>
