<svg width="208" height="161" viewBox="0 0 208 161" fill="none" xmlns="http://www.w3.org/2000/svg">
<g clip-path="url(#clip0_334_21390)">
<path fill-rule="evenodd" clip-rule="evenodd" d="M21.1902 24.5205C18.1406 19.2399 15.8812 11.5242 16.0032 0.165061L0.00558472 0C-0.139072 13.4701 2.53442 24.0496 7.26749 32.2454C12.0282 40.4891 18.5915 45.8308 25.374 49.2146C37.4793 55.254 50.4675 55.0507 55.0124 54.9796C55.4074 54.9734 55.7387 54.9682 56 54.9682V39.2866C55.6586 39.2866 55.2783 39.2899 54.8629 39.2934C50.1712 39.3339 40.9974 39.4131 32.631 35.2391C28.2812 33.069 24.2121 29.7532 21.1902 24.5205Z" fill="#F0FF00"/>
<path fill-rule="evenodd" clip-rule="evenodd" d="M133.19 24.5205C130.141 19.2399 127.881 11.5242 128.003 0.165061L112.006 0C111.861 13.4701 114.534 24.0496 119.267 32.2454C124.028 40.4891 130.591 45.8308 137.374 49.2146C149.479 55.254 162.468 55.0507 167.012 54.9796C167.407 54.9734 167.739 54.9682 168 54.9682V39.2866C167.659 39.2866 167.278 39.2899 166.863 39.2934C162.171 39.3339 152.997 39.4131 144.631 35.2391C140.281 33.069 136.212 29.7532 133.19 24.5205Z" fill="#F0FF00"/>
<path fill-rule="evenodd" clip-rule="evenodd" d="M34.8098 79.0746C37.8594 73.89 40.1188 66.3146 39.9968 55.1621L55.9944 55C56.1391 68.2252 53.4656 78.6124 48.7325 86.6592C43.9718 94.7529 37.4085 99.9976 30.626 103.32C18.5207 109.249 5.53248 109.05 0.98762 108.98C0.592582 108.974 0.261334 108.969 0 108.969V93.5723C0.341442 93.5723 0.721687 93.5755 1.13706 93.579C5.82877 93.6188 15.0026 93.6965 23.369 89.5984C27.7188 87.4677 31.7879 84.2123 34.8098 79.0746Z" fill="#F0FF00"/>
<path fill-rule="evenodd" clip-rule="evenodd" d="M146.81 84.9254C149.859 90.11 152.119 97.6854 151.997 108.838L167.994 109C168.139 95.7748 165.466 85.3876 160.733 77.3408C155.972 69.2471 149.409 64.0024 142.626 60.6802C130.521 54.7506 117.532 54.9502 112.988 55.0201C112.593 55.0261 112.261 55.0312 112 55.0312V70.4277C112.341 70.4277 112.722 70.4245 113.137 70.421C117.829 70.3812 127.003 70.3035 135.369 74.4016C139.719 76.5323 143.788 79.7877 146.81 84.9254Z" fill="#F0FF00"/>
<path fill-rule="evenodd" clip-rule="evenodd" d="M34.8098 132.629C37.8594 127.54 40.1188 120.105 39.9968 109.159L55.9944 109C56.1391 121.98 53.4656 132.175 48.7325 140.073C43.9718 148.017 37.4085 153.164 30.626 156.425C18.5207 162.245 5.53248 162.049 0.98762 161.98C0.592582 161.974 0.261334 161.969 0 161.969V146.858C0.341442 146.858 0.721687 146.861 1.13706 146.865C5.82877 146.904 15.0026 146.98 23.369 142.958C27.7188 140.866 31.7879 137.671 34.8098 132.629Z" fill="#F0FF00"/>
<path fill-rule="evenodd" clip-rule="evenodd" d="M133.19 132.629C130.141 127.54 127.881 120.105 128.003 109.159L112.006 109C111.861 121.98 114.534 132.175 119.267 140.073C124.028 148.017 130.591 153.164 137.374 156.425C149.479 162.245 162.468 162.049 167.012 161.98C167.407 161.974 167.739 161.969 168 161.969V146.858C167.659 146.858 167.278 146.861 166.863 146.865C162.171 146.904 152.997 146.98 144.631 142.958C140.281 140.866 136.212 137.671 133.19 132.629Z" fill="#F0FF00"/>
<path fill-rule="evenodd" clip-rule="evenodd" d="M90.8098 138.371C93.8594 143.46 96.1188 150.895 95.9968 161.841L111.994 162C112.139 149.02 109.466 138.825 104.733 130.927C99.9718 122.983 93.4085 117.836 86.626 114.575C74.5207 108.755 61.5325 108.951 56.9876 109.02C56.5926 109.026 56.2613 109.031 56 109.031V124.142C56.3414 124.142 56.7217 124.139 57.1371 124.135C61.8288 124.096 71.0026 124.02 79.369 128.042C83.7188 130.134 87.7879 133.329 90.8098 138.371Z" fill="#F0FF00"/>
<path fill-rule="evenodd" clip-rule="evenodd" d="M203.188 138.371C206.183 143.46 208.402 150.895 208.283 161.841L223.995 162C224.137 149.02 221.511 138.825 216.862 130.927C212.187 122.983 205.741 117.836 199.079 114.575C187.19 108.755 174.434 108.951 169.97 109.02C169.582 109.026 169.257 109.031 169 109.031V124.142C169.335 124.142 169.709 124.139 170.117 124.135C174.725 124.096 183.735 124.02 191.952 128.042C196.224 130.134 200.22 133.329 203.188 138.371Z" fill="#F0FF00"/>
<path fill-rule="evenodd" clip-rule="evenodd" d="M90.8098 79.0746C93.8594 73.89 96.1188 66.3146 95.9968 55.1621L111.994 55C112.139 68.2252 109.466 78.6124 104.733 86.6592C99.9718 94.7529 93.4085 99.9976 86.626 103.32C74.5207 109.249 61.5325 109.05 56.9876 108.98C56.5926 108.974 56.2613 108.969 56 108.969V93.5723C56.3414 93.5723 56.7217 93.5755 57.1371 93.579C61.8288 93.6188 71.0026 93.6965 79.369 89.5984C83.7188 87.4677 87.7879 84.2123 90.8098 79.0746Z" fill="#F0FF00"/>
<path fill-rule="evenodd" clip-rule="evenodd" d="M203.188 84.9254C206.183 90.11 208.402 97.6854 208.283 108.838L223.995 109C224.137 95.7748 221.511 85.3876 216.862 77.3408C212.187 69.2471 205.741 64.0024 199.079 60.6802C187.19 54.7506 174.434 54.9502 169.97 55.0201C169.582 55.0261 169.257 55.0312 169 55.0312V70.4277C169.335 70.4277 169.709 70.4245 170.117 70.421C174.725 70.3812 183.735 70.3035 191.952 74.4016C196.224 76.5323 200.22 79.7877 203.188 84.9254Z" fill="#F0FF00"/>
<path fill-rule="evenodd" clip-rule="evenodd" d="M77.1902 29.9254C74.1406 35.11 71.8812 42.6854 72.0032 53.8379L56.0056 54C55.8609 40.7748 58.5344 30.3876 63.2675 22.3408C68.0282 14.2471 74.5915 9.00245 81.374 5.68019C93.4793 -0.249367 106.468 -0.0497704 111.012 0.0200729C111.407 0.0261421 111.739 0.0312347 112 0.0312347V15.4277C111.659 15.4277 111.278 15.4245 110.863 15.421C106.171 15.3812 96.9974 15.3035 88.631 19.4016C84.2812 21.5323 80.2121 24.7877 77.1902 29.9254Z" fill="#F0FF00"/>
<path fill-rule="evenodd" clip-rule="evenodd" d="M189.812 24.0746C186.817 18.89 184.598 11.3146 184.717 0.162059L169.005 0C168.863 13.2252 171.489 23.6124 176.138 31.6592C180.813 39.7529 187.259 44.9976 193.921 48.3198C205.81 54.2494 218.566 54.0498 223.03 53.9799C223.418 53.9739 223.743 53.9688 224 53.9688V38.5723C223.665 38.5723 223.291 38.5755 222.883 38.579C218.275 38.6188 209.265 38.6965 201.048 34.5984C196.776 32.4677 192.78 29.2123 189.812 24.0746Z" fill="#F0FF00"/>
</g>
<defs>
<clipPath id="clip0_334_21390">
<rect width="208" height="161" fill="white"/>
</clipPath>
</defs>
</svg>
